<svg width="127" height="21" viewBox="0 0 127 21" fill="none" xmlns="http://www.w3.org/2000/svg">
<path id="Vector" d="M51.6826 0.676836H44.9533V20.329H51.6826C57.8588 20.329 62.128 16.0338 62.128 10.5029V10.4453C62.128 4.91434 57.8617 0.673956 51.6826 0.673956V0.676836ZM57.6053 10.5605C57.6053 14.0433 55.2201 16.4285 51.6826 16.4285H49.2772V4.58018H51.6826C55.2201 4.58018 57.6053 7.02301 57.6053 10.5029V10.5576V10.5605ZM16.3076 0.676836H11.9837V8.45472H4.32393V0.676836H0V20.329H4.32393V12.4387H11.9866V20.329H16.3105V12.3725L19.0875 8.48929H16.3105V0.676836H16.3076ZM36.3141 4.52257L38.5351 0.676836H24.6789V20.329H36.3112L38.5322 16.4832H28.9769V12.3552H33.7906L36.0116 8.50945H28.9769V4.52257H36.3169H36.3141ZM80.0402 16.3997H72.0779V0.676836H67.754V20.329H82.1892V20.1763L80.0258 16.4256L80.043 16.3968L80.0402 16.3997ZM88.4691 0.676836L82.7595 10.5634L88.4691 20.4499H99.8853L105.595 10.5634L99.8853 0.676836H88.4691ZM97.2206 15.8351H91.1337L88.0917 10.5663L91.1337 5.29747H97.2206L100.263 10.5663L97.2206 15.8351ZM124.714 14.3947L124.697 14.3774C123.153 15.7803 121.776 16.6791 119.532 16.6791C116.161 16.6791 113.834 13.8704 113.834 10.5029V10.4453C113.834 7.07486 116.219 4.3238 119.532 4.3238C121.473 4.3238 123.003 5.14768 124.504 6.49584L126.656 2.76822C124.95 1.30483 122.836 0.336914 119.56 0.336914C113.525 0.336914 109.314 4.91434 109.314 10.5V10.5547C109.314 16.198 113.609 20.6631 119.393 20.6631C122.741 20.6631 124.881 19.6117 126.73 17.8775L124.717 14.389L124.714 14.3947Z" fill="white"/>
</svg>
