<svg width="340" height="21" viewBox="0 0 340 21" fill="none" xmlns="http://www.w3.org/2000/svg">
<path d="M51.6826 0.676836H44.9533V20.329H51.6826C57.8588 20.329 62.128 16.0338 62.128 10.5029V10.4453C62.128 4.91434 57.8617 0.673956 51.6826 0.673956V0.676836ZM57.6053 10.5605C57.6053 14.0433 55.2201 16.4285 51.6826 16.4285H49.2772V4.58018H51.6826C55.2201 4.58018 57.6053 7.02301 57.6053 10.5029V10.5576V10.5605ZM16.3076 0.676836H11.9837V8.45472H4.32393V0.676836H0V20.329H4.32393V12.4387H11.9866V20.329H16.3105V12.3725L19.0875 8.48929H16.3105V0.676836H16.3076ZM36.3141 4.52257L38.5351 0.676836H24.6789V20.329H36.3112L38.5322 16.4832H28.9769V12.3552H33.7906L36.0116 8.50945H28.9769V4.52257H36.3169H36.3141ZM80.0402 16.3997H72.0779V0.676836H67.754V20.329H82.1892V20.1763L80.0258 16.4256L80.043 16.3968L80.0402 16.3997ZM88.4691 0.676836L82.7595 10.5634L88.4691 20.4499H99.8853L105.595 10.5634L99.8853 0.676836H88.4691ZM97.2206 15.8351H91.1337L88.0917 10.5663L91.1337 5.29747H97.2206L100.263 10.5663L97.2206 15.8351ZM124.714 14.3947L124.697 14.3774C123.153 15.7803 121.776 16.6791 119.532 16.6791C116.161 16.6791 113.834 13.8704 113.834 10.5029V10.4453C113.834 7.07486 116.219 4.3238 119.532 4.3238C121.473 4.3238 123.003 5.14768 124.504 6.49584L126.656 2.76822C124.95 1.30483 122.836 0.336914 119.56 0.336914C113.525 0.336914 109.314 4.91434 109.314 10.5V10.5547C109.314 16.198 113.609 20.6631 119.393 20.6631C122.741 20.6631 124.881 19.6117 126.73 17.8775L124.717 14.389L124.714 14.3947Z" fill="white"/>
<path fill-rule="evenodd" clip-rule="evenodd" d="M299.468 10.4914V10.5461L299.462 10.5519C299.462 16.1894 303.599 20.6487 309.208 20.6487C312.734 20.6487 314.955 19.2717 316.983 17.1976L315.539 15.7659C313.681 17.5606 311.93 18.5977 309.265 18.5977C304.99 18.5977 301.741 15.0342 301.741 10.4914V10.4338C301.741 5.9197 304.961 2.38509 309.265 2.38509C311.904 2.38509 313.736 3.50856 315.375 5.07854L316.876 3.45095C314.934 1.59866 312.823 0.336914 309.297 0.336914C303.576 0.336914 299.468 4.93739 299.468 10.4914ZM139.73 0.67395H141.923V20.3059H139.73V0.67395ZM147.258 5.80726H149.392V8.33075C150.337 6.76077 151.835 5.49902 154.307 5.49902C157.778 5.49902 159.806 7.85543 159.806 11.3036V20.3058H157.668V11.8366C157.668 9.1431 156.225 7.46078 153.699 7.46078C151.172 7.46078 149.395 9.28426 149.395 12.0036V20.3058H147.258V5.80726ZM164.746 5.80725H162.387L168.606 20.421H170.493L176.741 5.80725H174.437L169.577 17.8399L164.746 5.80725ZM185.6 18.7646C187.57 18.7646 188.959 17.9522 190.125 16.7164L191.459 17.9234C190.016 19.551 188.267 20.6428 185.545 20.6428C181.601 20.6428 178.381 17.5864 178.381 13.0694C178.381 8.86075 181.296 5.49609 185.265 5.49609C189.515 5.49609 191.957 8.91836 191.957 13.1818V13.1819C191.957 13.3778 191.957 13.6025 191.929 13.9394H180.544C180.849 16.9958 183.07 18.7646 185.597 18.7646H185.6ZM189.794 12.2024C189.543 9.56652 188.045 7.32246 185.214 7.32246C182.742 7.32246 180.855 9.39656 180.55 12.2024H189.794ZM194.516 18.4561L194.515 18.4565L194.512 18.4536L194.516 18.4561ZM200.455 20.5853C198.403 20.5853 196.126 19.774 194.516 18.4561L195.598 16.9124C197.154 18.0906 198.874 18.7647 200.568 18.7647C202.262 18.7647 203.538 17.8688 203.538 16.4659V16.4083C203.538 14.9507 201.844 14.3889 199.957 13.856C197.707 13.2107 195.21 12.4243 195.21 9.75965V9.70492C195.21 7.20735 197.264 5.55383 200.095 5.55383C201.844 5.55383 203.788 6.1703 205.26 7.15262L204.29 8.78021C202.956 7.91024 201.429 7.37731 200.041 7.37731C198.347 7.37731 197.264 8.27609 197.264 9.48022V9.53496C197.264 10.8969 199.01 11.4325 200.906 12.0141L200.957 12.0296C203.178 12.7037 205.566 13.5737 205.566 16.1807V16.2383C205.566 18.9865 203.316 20.5853 200.455 20.5853ZM210.008 16.4659V7.71432H208.009V5.8073H210.008V1.43152H212.145V5.8073H216.7V7.71432H212.145V16.1836C212.145 17.9494 213.116 18.5947 214.562 18.5947C215.285 18.5947 215.896 18.4536 216.645 18.0906V19.9429C215.896 20.3347 215.089 20.5593 214.064 20.5593C211.759 20.5593 210.011 19.4099 210.011 16.4659H210.008ZM222.611 5.80726H220.473V20.3087H222.611V12.0353C222.611 9.37068 224.334 7.46366 226.609 7.46366C228.885 7.46366 230.302 9.06245 230.302 11.7818V20.3087H232.414V11.9518C232.414 9.09125 234.217 7.46366 236.383 7.46366C238.717 7.46366 240.105 9.03364 240.105 11.8394V20.3087H242.243V11.3324C242.243 7.74309 240.215 5.49902 236.911 5.49902C234.413 5.49902 232.886 6.78958 231.858 8.38836C231.08 6.76077 229.666 5.49902 227.249 5.49902C224.832 5.49902 223.556 6.8155 222.611 8.24721V5.80726ZM253.21 18.7646C255.18 18.7646 256.569 17.9522 257.735 16.7164L259.069 17.9234C257.626 19.551 255.877 20.6428 253.155 20.6428C249.211 20.6428 245.991 17.5864 245.991 13.0694C245.991 8.86075 248.906 5.49609 252.876 5.49609C257.125 5.49609 259.567 8.91836 259.567 13.1818C259.567 13.3777 259.567 13.6024 259.539 13.9394H248.154C248.459 16.9958 250.68 18.7646 253.207 18.7646H253.21ZM257.404 12.2024C257.153 9.56652 255.655 7.32246 252.824 7.32246C250.352 7.32246 248.465 9.39656 248.16 12.2024H257.404ZM265.455 5.80726H263.321V20.3058H265.458V12.0036C265.458 9.28426 267.236 7.46078 269.762 7.46078C272.288 7.46078 273.732 9.1431 273.732 11.8366V20.3058H275.869V11.3036C275.869 7.85543 273.841 5.49902 270.37 5.49902C267.898 5.49902 266.4 6.76077 265.455 8.33075V5.80726ZM281.173 16.4659V7.71432H279.173V5.8073H281.173V1.43152H283.31V5.8073H287.864V7.71432H283.31V16.1836C283.31 17.9494 284.281 18.5947 285.727 18.5947C286.45 18.5947 287.061 18.4536 287.81 18.0906V19.9429C287.061 20.3347 286.254 20.5593 285.229 20.5593C282.924 20.5593 281.175 19.4099 281.175 16.4659H281.173ZM319.293 13.1271V13.0724C319.293 8.97602 322.459 5.49902 326.789 5.49902C331.118 5.49902 334.258 8.92129 334.258 13.0148V13.0695C334.258 17.1658 331.066 20.6428 326.734 20.6428C322.401 20.6428 319.293 17.2206 319.293 13.1271ZM332.066 13.1271V13.0724C332.066 9.95834 329.761 7.40604 326.734 7.40604C323.706 7.40604 321.485 9.95834 321.485 13.0148V13.0695C321.485 16.1835 323.761 18.707 326.789 18.707C329.816 18.707 332.063 16.1835 332.063 13.1271H332.066ZM339.87 17.3618H337.314V20.3059H339.87V17.3618Z" fill="white"/>
</svg>
